<?xml version="1.0" standalone="no"?>
<!DOCTYPE svg PUBLIC "-//W3C//DTD SVG 1.1//EN" "http://www.w3.org/Graphics/SVG/1.1/DTD/svg11.dtd" >
<svg xmlns="http://www.w3.org/2000/svg">
<metadata>
This is a custom SVG webfont generated by Font Squirrel.
Copyright   : Copyright c 2011 by GM All rights reserved
Foundry     : GM
</metadata>
<defs>
<font id="LouisCondensedDemi" horiz-adv-x="897" >
<font-face units-per-em="2048" ascent="1536" descent="-512" />
<missing-glyph horiz-adv-x="358" />
<glyph unicode=" "  horiz-adv-x="358" />
<glyph unicode="&#x09;" horiz-adv-x="358" />
<glyph unicode="&#xa0;" horiz-adv-x="358" />
<glyph unicode="!" horiz-adv-x="475" d="M111 0v274h254v-274h-254zM113 1536h249l-24 -1053h-201z" />
<glyph unicode="&#x22;" horiz-adv-x="686" d="M78 987v549h233l-35 -549h-198zM410 987v549h231l-33 -549h-198z" />
<glyph unicode="#" horiz-adv-x="954" d="M41 385v150h160l28 364h-161v150h172l30 385h181l-31 -385h164l28 385h181l-29 -385h149v-150h-161l-29 -364h164v-150h-174l-31 -385h-180l30 385h-163l-29 -385h-180l28 385h-147zM381 535h162l28 364h-161z" />
<glyph unicode="$" horiz-adv-x="911" d="M66 483h221q2 -78 33.5 -137t82.5 -82v441l-28 14q-139 68 -209 150.5t-70 240.5q0 156 84 251t223 112v186h123v-186q145 -20 229.5 -126t78.5 -286h-220q0 160 -88 205v-394l11 -4q147 -68 228 -163t81 -252q0 -160 -88 -265.5t-232 -126.5v-204h-123v202 q-156 18 -244.5 136t-92.5 288zM315 1112q0 -113 88 -174v334q-88 -35 -88 -160zM526 266q100 45 101 191q0 106 -101 180v-371z" />
<glyph unicode="%" horiz-adv-x="1153" d="M57 1212v37q0 150 65.5 228.5t172 78.5t172 -78.5t65.5 -228.5v-37q0 -147 -65.5 -227t-172 -80t-172 80t-65.5 227zM211 1208q0 -160 84 -159.5t84 159.5v45q0 160 -84 160t-84 -160v-45zM219 0l567 1536h160l-567 -1536h-160zM621 287v37q0 150 65.5 228.5t172 78.5 t172 -79t65.5 -228v-37q0 -147 -65.5 -227t-172 -80t-172 80t-65.5 227zM774 283q0 -160 84 -160t84 160v45q0 160 -84 159.5t-84 -159.5v-45z" />
<glyph unicode="&#x26;" horiz-adv-x="1032" d="M61 420q0 238 209 409q-125 174 -125 352.5t93.5 276.5t224.5 98q145 0 234 -94t89 -252q0 -238 -239 -432l162 -252q29 111 34 228h215q-14 -238 -104 -453l188 -285v-16h-251l-70 106q-106 -125 -268 -124q-170 0 -281 118.5t-111 319.5zM289 420q0 -111 46 -173.5 t120 -62.5q104 0 157 99l-235 366q-88 -96 -88 -229zM369 1190q0 -109 75 -240q119 98 119 254q0 61 -24.5 103.5t-69.5 42.5q-100 0 -100 -160z" />
<glyph unicode="'" horiz-adv-x="350" d="M78 987v549h227l-35 -549h-192z" />
<glyph unicode="(" horiz-adv-x="583" d="M104 686q0 573 283 1057h201q-252 -487 -252 -1057q0 -571 252 -1059h-201q-283 484 -283 1059z" />
<glyph unicode=")" horiz-adv-x="583" d="M-4 -373q252 487 252 1059q0 569 -252 1057h201q283 -483 282 -1057q0 -575 -282 -1059h-201z" />
<glyph unicode="*" horiz-adv-x="776" d="M29 1178l59 180l219 -94l-16 276h194l-16 -276l219 94l60 -180l-254 -64l182 -233l-146 -111l-143 229l-141 -229l-146 111l183 233z" />
<glyph unicode="+" horiz-adv-x="1021" d="M57 516v197h351v475h206v-475h351v-197h-351v-475h-206v475h-351z" />
<glyph unicode="," horiz-adv-x="417" d="M57 -231q152 47 152 206q0 25 -23 25h-112v289h276v-244q0 -92 -24.5 -169t-93 -138.5t-175.5 -75.5v107z" />
<glyph unicode="-" horiz-adv-x="735" d="M57 700v197h621v-197h-621z" />
<glyph unicode="." horiz-adv-x="417" d="M76 0v289h266v-289h-266z" />
<glyph unicode="/" horiz-adv-x="684" d="M12 -158l449 1805h211l-447 -1805h-213z" />
<glyph unicode="0" horiz-adv-x="999" d="M109 477v582q0 119 22 205q39 141 137.5 216.5t231.5 75.5t231 -75.5t137 -216.5q23 -86 23 -205v-582q0 -119 -23 -205q-39 -141 -137 -216.5t-231 -75.5t-231.5 75.5t-137.5 216.5q-22 86 -22 205zM344 487q0 -113 18 -168q35 -109 137.5 -108.5t137.5 108.5 q18 55 18 168v562q0 113 -18 168q-35 109 -137.5 108.5t-137.5 -108.5q-18 -55 -18 -168v-562z" />
<glyph unicode="1" horiz-adv-x="659" d="M20 946v307l273 283h215v-1536h-236v1198l-247 -252h-5z" />
<glyph unicode="2" horiz-adv-x="909" d="M82 0v92q0 152 46 281t96 197.5t136 160.5l29 31q68 72 102.5 114t66.5 117.5t32 161.5q0 180 -131 180q-137 0 -137 -221v-39h-234v39q0 207 102.5 324.5t268.5 117.5q162 0 266 -104t104 -297q0 -156 -70.5 -275.5t-213.5 -275.5l-21 -22q-53 -57 -87 -99.5t-68.5 -115 t-38.5 -142.5h501v-225h-749z" />
<glyph unicode="3" horiz-adv-x="927" d="M55 424h234q2 -221 168 -221q76 0 122 62.5t46 189.5q0 115 -57.5 182.5t-174.5 67.5h-102v208h102q104 0 154.5 65.5t50.5 176.5q0 184 -135 184q-145 0 -146 -211h-233q0 193 104.5 310.5t274.5 117.5q164 0 266 -104t102 -295q0 -219 -182 -340v-2q211 -115 211 -377 q0 -207 -113.5 -332.5t-289.5 -125.5q-186 0 -294 116.5t-108 327.5z" />
<glyph unicode="4" horiz-adv-x="940" d="M45 387v203l428 966h287v-958h160v-211h-160v-387h-228v387h-487zM272 598h260v604h-2z" />
<glyph unicode="5" horiz-adv-x="958" d="M102 455h236q0 -123 39 -184.5t106 -61.5q104 0 138 115q14 49 14 155v90q0 88 -10 144q-12 63 -44 88.5t-85 25.5q-100 0 -156 -118h-221v827h690v-229h-455v-332q76 76 185 76q260 0 317 -281q14 -66 14 -184v-117q0 -104 -16 -180q-33 -152 -131 -230.5t-240 -78.5 q-166 0 -272.5 127t-108.5 348z" />
<glyph unicode="6" horiz-adv-x="980" d="M109 477v582q0 119 22 205q39 141 137.5 216.5t231.5 75.5q164 0 267 -109.5t120 -285.5h-238q-12 86 -53 125t-96 39q-102 0 -138 -108q-18 -55 -18 -168v-162q72 113 229 112q109 0 187 -65.5t110 -200.5q20 -88 21 -209v-47q0 -119 -23 -205q-39 -141 -137 -216.5 t-231 -75.5t-231.5 75.5t-137.5 216.5q-22 86 -22 205zM344 487q0 -113 18 -168q35 -109 137.5 -108.5t137.5 108.5q18 55 18 168v17q0 82 -6 127q-23 147 -133 147q-72 0 -122 -72.5t-50 -191.5v-27z" />
<glyph unicode="7" horiz-adv-x="831" d="M33 1311v225h758v-201q-319 -791 -355 -1335h-248q33 489 355 1311h-510z" />
<glyph unicode="8" horiz-adv-x="962" d="M72 436q0 115 52 218.5t148 162.5q-170 127 -170 340q0 186 104.5 292.5t274.5 106.5t274.5 -106.5t104.5 -292.5q0 -213 -170 -340q96 -59 148.5 -162.5t52.5 -218.5q0 -197 -114.5 -326.5t-295 -129.5t-295 129.5t-114.5 326.5zM307 453q0 -121 47 -188.5t127 -67.5 t127 67.5t47 188.5q0 100 -45 172.5t-129 72.5t-129 -72.5t-45 -172.5zM336 1151q0 -92 39 -156.5t106.5 -64.5t106.5 64.5t39 156.5q0 94 -39 147.5t-106.5 53.5t-106.5 -53.5t-39 -147.5z" />
<glyph unicode="9" horiz-adv-x="980" d="M90 1012v47q0 119 23 205q39 141 137 216.5t231 75.5t231.5 -75.5t137.5 -216.5q23 -86 22 -205v-582q0 -119 -22 -205q-39 -141 -137.5 -216.5t-231.5 -75.5q-164 0 -267 109.5t-120 285.5h238q12 -86 53 -125t96 -39q102 0 137 108q18 55 19 168v162 q-72 -113 -229 -112q-109 0 -187 65.5t-110 200.5q-21 88 -21 209zM326 1032q0 -82 6 -127q23 -147 133 -147q72 0 122 72.5t50 191.5v27q0 113 -19 168q-35 109 -137 108.5t-137 -108.5q-18 -55 -18 -168v-17z" />
<glyph unicode=":" horiz-adv-x="473" d="M102 0v289h267v-289h-267zM102 836v288h267v-288h-267z" />
<glyph unicode=";" horiz-adv-x="473" d="M90 -231q152 47 152 206q0 25 -23 25h-113v289h277v-244q0 -92 -24.5 -169t-93 -138.5t-175.5 -75.5v107zM109 836v288h266v-288h-266z" />
<glyph unicode="&#x3c;" d="M74 514v201l749 463v-232l-559 -332l559 -331v-232z" />
<glyph unicode="=" horiz-adv-x="921" d="M82 299v197h758v-197h-758zM82 733v197h758v-197h-758z" />
<glyph unicode="&#x3e;" d="M74 51v232l559 331l-559 332v232l749 -463v-201z" />
<glyph unicode="?" horiz-adv-x="815" d="M45 1096v39q0 193 100.5 307t255.5 114q162 0 260.5 -94t98.5 -262q0 -109 -39 -186.5t-107 -155.5q-49 -57 -72.5 -92t-43 -110.5t-11.5 -172.5h-217q-4 57 -4 82q0 94 28 174t55.5 119t78.5 98q102 117 102 236q0 72 -34.5 113t-92.5 41q-63 0 -99 -57.5t-36 -153.5 v-39h-223zM256 0v274h254v-274h-254z" />
<glyph unicode="@" horiz-adv-x="1505" d="M106 461l29 270q43 403 220 604t438 201h32q594 0 580 -733q-4 -195 -44 -363t-120 -277.5t-184 -101.5q-57 4 -102.5 46.5t-59.5 109.5q-80 -147 -215 -147q-147 0 -208.5 122.5t-43.5 292.5l25 224q23 211 106.5 320.5t216.5 109.5q121 0 176 -115l25 88h149l-77 -735 q-20 -182 28 -189q70 -8 130.5 195t64.5 420q8 328 -106.5 466t-340.5 138h-32q-199 0 -338.5 -175t-171.5 -501l-27 -270q-12 -115 2 -223.5t57 -204.5t131.5 -154.5t212.5 -58.5h27q92 0 193.5 33.5t169.5 89.5l43 -121q-76 -55 -190 -92t-222 -37h-29q-201 0 -335 110.5 t-183.5 281.5t-26.5 376zM633 494q-20 -238 74 -238q51 0 97 77t56 167l21 198q12 104 -11.5 178t-81.5 74q-113 0 -135 -243z" />
<glyph unicode="A" horiz-adv-x="954" d="M4 0l324 1536h299l323 -1536h-239l-86 449h-295l-86 -449h-240zM373 674h209l-103 532h-4z" />
<glyph unicode="B" horiz-adv-x="1011" d="M131 0v1536h326q104 0 186 -20q260 -70 260 -379q0 -221 -174 -330q106 -53 158.5 -149.5t52.5 -211.5q0 -193 -93 -308t-272 -134q-41 -4 -83 -4h-361zM367 227h125q51 0 75 6q135 33 135 218q0 172 -122 213q-35 12 -101 12h-112v-449zM367 899h96q61 0 94 12 q113 41 113 209q0 141 -103 176q-35 12 -102 13h-98v-410z" />
<glyph unicode="C" horiz-adv-x="985" d="M109 508v520q0 98 14 176q29 158 126 255t261 97h8q164 0 261.5 -97t125.5 -255q14 -74 15 -170h-236q0 51 -10 127q-29 168 -156 168h-8q-127 0 -156 -168q-10 -59 -10 -135v-516q0 -76 10 -135q29 -168 156 -168h8q127 0 156 168q10 76 10 137h236q0 -106 -15 -180 q-29 -158 -126 -255t-261 -97h-8q-164 0 -261 97t-126 255q-14 78 -14 176z" />
<glyph unicode="D" horiz-adv-x="1038" d="M131 0v1536h336q78 0 135 -10q264 -51 313 -342q14 -78 15 -176v-480q0 -98 -15 -176q-49 -291 -313 -342q-57 -10 -135 -10h-336zM367 229h104q66 0 100 13q94 35 113 155q10 59 10 135v472q0 76 -10 135q-18 121 -113 155q-35 12 -100 13h-104v-1078z" />
<glyph unicode="E" horiz-adv-x="925" d="M131 0v1536h737v-227h-501v-408h415v-227h-415v-447h501v-227h-737z" />
<glyph unicode="F" horiz-adv-x="915" d="M131 0v1536h737v-227h-501v-408h415v-227h-415v-674h-236z" />
<glyph unicode="G" horiz-adv-x="1032" d="M109 508v520q0 98 14 176q29 158 126 255t261 97h8q164 0 261.5 -97t125.5 -255q14 -74 15 -170h-236q0 51 -10 127q-29 168 -156 168h-8q-127 0 -156 -168q-10 -59 -10 -135v-516q0 -76 10 -135q29 -168 156 -168h8q131 0 160 168q10 76 10 137v53h-205v219h437v-784 h-138l-32 137q-90 -158 -256 -157q-164 0 -259.5 106.5t-117.5 278.5q-8 63 -8 143z" />
<glyph unicode="H" horiz-adv-x="1091" d="M131 0v1536h236v-621h358v621h236v-1536h-236v684h-358v-684h-236z" />
<glyph unicode="I" horiz-adv-x="497" d="M131 0v1536h236v-1536h-236z" />
<glyph unicode="J" horiz-adv-x="915" d="M68 444v121h235v-123q0 -49 8 -102q10 -61 41 -97t78 -36q96 0 119 129q8 49 8 106v1094h236v-1094q0 -68 -7 -116q-20 -158 -110 -252t-246 -94q-152 0 -241 89t-113 248q-8 70 -8 127z" />
<glyph unicode="K" horiz-adv-x="1011" d="M131 0v1536h236v-627l2 -2q39 72 57 101l313 528h258l-368 -588l397 -948h-258l-289 713l-112 -185v-528h-236z" />
<glyph unicode="L" horiz-adv-x="911" d="M131 0v1536h236v-1307h507v-229h-743z" />
<glyph unicode="M" horiz-adv-x="1286" d="M131 0v1536h262l250 -866l250 866h262v-1536h-223v870l2 119h-2l-201 -704h-176l-201 704h-2q2 -68 2 -119v-870h-223z" />
<glyph unicode="N" horiz-adv-x="1089" d="M131 0v1536h260l344 -1016h2q-2 68 -2 119v897h223v-1536h-260l-344 1018h-2q2 -68 2 -119v-899h-223z" />
<glyph unicode="O" horiz-adv-x="1028" d="M109 508v520q0 98 14 176q29 158 126 255t261 97h8q164 0 261.5 -97t125.5 -255q14 -78 15 -176v-520q0 -98 -15 -176q-29 -158 -126 -255t-261 -97h-8q-164 0 -261 97t-126 255q-14 78 -14 176zM344 510q0 -76 10 -135q29 -168 156 -168h8q127 0 156 168q10 59 10 135 v516q0 76 -10 135q-29 168 -156 168h-8q-127 0 -156 -168q-10 -59 -10 -135v-516z" />
<glyph unicode="P" horiz-adv-x="1003" d="M131 0v1536h344q88 0 154 -16q147 -39 227 -163t80 -298q0 -172 -83 -298t-243 -161q-53 -12 -133 -12h-110v-588h-236zM367 817h106q63 0 96 12q131 45 131 230q0 193 -129 237q-35 12 -98 13h-106v-492z" />
<glyph unicode="Q" horiz-adv-x="1028" d="M109 508v520q0 98 14 176q29 158 126 255t261 97h8q164 0 261.5 -97t125.5 -255q14 -78 15 -176v-520q0 -98 -15 -176q-29 -168 -131 -260q80 -33 248 -37v-209q-170 8 -278.5 44t-186.5 112q-12 -2 -39 -2h-8q-164 0 -261 97t-126 255q-14 78 -14 176zM344 510 q0 -76 10 -135q29 -168 156 -168h8q127 0 156 168q10 59 10 135v516q0 76 -10 135q-29 168 -156 168h-8q-127 0 -156 -168q-10 -59 -10 -135v-516z" />
<glyph unicode="R" horiz-adv-x="999" d="M131 0v1536h322q76 0 137 -10q152 -27 233.5 -126.5t81.5 -271.5q0 -238 -203 -350v-2q92 -43 136.5 -110.5t52.5 -180.5l16 -282q10 -150 64 -199v-4h-244q-43 59 -51 184l-19 271q-12 158 -104 186q-37 10 -96 10h-90v-651h-236zM367 874h84q61 0 86 9q133 39 133 227 q0 166 -135 190q-41 8 -91 9h-77v-435z" />
<glyph unicode="S" horiz-adv-x="962" d="M70 453h237q2 -113 52.5 -184.5t126 -71.5t122.5 59t47 166q0 90 -47 146.5t-149 107.5l-64 33q-145 74 -219 169t-74 271q0 190 106.5 298.5t276.5 108.5q180 0 291 -119q103 -112 103 -313v-30h-236q0 113 -40 179t-117.5 66t-113.5 -54t-36 -134q0 -86 40 -139.5 t118 -91.5l71 -35q156 -76 241 -184.5t85 -282.5q0 -199 -113.5 -318.5t-292.5 -119.5q-190 0 -300.5 133t-114.5 340z" />
<glyph unicode="T" horiz-adv-x="903" d="M25 1309v227h854v-227h-310v-1309h-235v1309h-309z" />
<glyph unicode="U" horiz-adv-x="1056" d="M123 508v1028h235v-1026q0 -76 11 -135q29 -168 155 -168h8q127 0 156 168q10 59 10 135v1026h236v-1028q0 -98 -14 -176q-29 -158 -126.5 -255t-261.5 -97h-8q-164 0 -261 97t-126 255q-14 78 -14 176z" />
<glyph unicode="V" horiz-adv-x="942" d="M4 1536h240l225 -1192h4l225 1192h240l-324 -1536h-286z" />
<glyph unicode="W" horiz-adv-x="1409" d="M29 1536h245l136 -1122h4l157 1122h267l157 -1122h4l136 1122h245l-233 -1536h-287l-153 1063h-5l-153 -1063h-287z" />
<glyph unicode="X" horiz-adv-x="940" d="M0 0l348 801l-311 735h258l176 -467l176 467h258l-311 -735l346 -801h-256l-213 541q-37 -86 -106.5 -270.5t-106.5 -270.5h-258z" />
<glyph unicode="Y" horiz-adv-x="931" d="M-10 1536h252l223 -590h2l223 590h252l-358 -866v-670h-236v670z" />
<glyph unicode="Z" horiz-adv-x="950" d="M61 0v201l535 1108h-514v227h790v-199l-536 -1110h547v-227h-822z" />
<glyph unicode="[" horiz-adv-x="659" d="M150 -389v2148h489v-160h-266v-1828h266v-160h-489z" />
<glyph unicode="\" horiz-adv-x="684" d="M12 1647h211l449 -1805h-213z" />
<glyph unicode="]" horiz-adv-x="659" d="M20 -229h267v1828h-267v160h490v-2148h-490v160z" />
<glyph unicode="^" horiz-adv-x="782" d="M37 813l250 743h209l249 -743h-202l-152 498l-151 -498h-203z" />
<glyph unicode="_" horiz-adv-x="735" d="M-4 -125h743v-168h-743v168z" />
<glyph unicode="`" d="M182 1704v12h248l180 -370h-168z" />
<glyph unicode="a" horiz-adv-x="907" d="M78 360q0 143 74.5 236.5t214.5 116.5q57 8 114 8h80v43q0 53 -8 98q-20 102 -104 103q-90 0 -111 -125h-223q23 152 112.5 239.5t229 87.5t222.5 -84t101 -243q8 -82 8 -156v-684h-157l-19 133q-84 -154 -239 -153q-127 0 -211 100t-84 280zM303 365q0 -184 113 -185 q100 0 135 166q12 61 12 148v38h-88q-57 0 -86 -12q-86 -38 -86 -155z" />
<glyph unicode="b" horiz-adv-x="948" d="M125 0v1608h227v-445l-2 -102h2q78 106 207 106q121 0 191.5 -75.5t95.5 -204.5q14 -74 14 -187v-245q0 -90 -8 -148q-23 -143 -96.5 -235t-210.5 -92q-82 0 -146.5 38.5t-97.5 110.5l-18 -129h-158zM352 451q0 -35 7.5 -75t21.5 -83t45 -70.5t72 -27.5q100 0 127 141 q8 47 8 121v239q0 61 -6 107q-20 147 -121 147q-98 0 -137 -139q-16 -59 -17 -147v-213z" />
<glyph unicode="c" horiz-adv-x="870" d="M88 465v217q0 82 10 149q27 154 115 245t236 91q236 0 321 -229q31 -86 37 -180h-225q-4 37 -9 57q-23 137 -125 137t-124 -137q-8 -47 -9 -137v-209q0 -90 9 -137q23 -137 125 -137t124 137l7 37h225q-8 -100 -37 -168q-88 -221 -319 -221q-147 0 -235.5 91t-115.5 244 q-10 68 -10 150z" />
<glyph unicode="d" horiz-adv-x="948" d="M88 455v245q0 104 16 187q27 127 96.5 203.5t188.5 76.5q127 0 207 -86h2q-2 51 -2 103v424h227v-1608h-157l-19 150q-74 -170 -244 -170q-264 0 -307 327q-8 58 -8 148zM315 449q0 -59 7 -107q20 -147 120 -147q98 0 138 139q16 59 16 145v215q0 35 -7 75t-21.5 83 t-45 70.5t-71.5 27.5q-100 0 -127 -141q-8 -47 -9 -121v-239z" />
<glyph unicode="e" horiz-adv-x="894" d="M88 465v217q0 82 10 149q27 154 115 245t235.5 91t235.5 -91t113 -245q12 -72 12 -210v-103h-494v-55q0 -90 9 -137q23 -137 125 -138q57 0 88.5 45.5t37.5 108.5h226q-23 -172 -112 -267t-240 -95q-147 0 -235.5 91t-115.5 244q-10 68 -10 150zM315 711h267q0 61 -9 108 q-23 139 -125 139t-124 -139q-9 -61 -9 -108z" />
<glyph unicode="f" horiz-adv-x="604" d="M25 936v211h135v88q0 197 90 296t250 99q55 0 108 -8v-217q-57 8 -86 8q-72 0 -103.5 -42t-31.5 -142v-82h199v-211h-201q2 -68 2 -119v-817h-227v936h-135z" />
<glyph unicode="g" horiz-adv-x="948" d="M88 467v225q0 90 8 148q23 143 96.5 235t210.5 92q82 0 146.5 -38.5t97.5 -110.5l19 129h157v-1165q0 -98 -16 -175q-33 -137 -123 -215.5t-221 -78.5q-143 0 -240.5 92t-116.5 266h226q12 -74 48 -112t83 -38q104 0 127 152q6 37 6 107v24l2 102h-2q-78 -106 -207 -106 q-121 0 -191.5 76t-95.5 205q-14 73 -14 186zM315 471q0 -61 7 -106q20 -147 120 -148q98 0 138 139q16 59 16 148v192q0 35 -7 75t-21.5 83t-45 70.5t-71.5 27.5q-100 0 -127 -141q-8 -47 -9 -121v-219z" />
<glyph unicode="h" horiz-adv-x="978" d="M125 0v1608h227v-445l-2 -102h2q78 106 207 106q121 0 191.5 -75.5t95.5 -204.5q14 -74 14 -187v-700h-227v696q0 61 -6 107q-20 147 -121 147q-98 0 -137 -139q-16 -59 -17 -147v-664h-227z" />
<glyph unicode="i" horiz-adv-x="477" d="M121 1321v246h235v-246h-235zM125 0v1147h227v-1147h-227z" />
<glyph unicode="j" horiz-adv-x="483" d="M-90 -260q57 -8 86 -8q72 0 103.5 42t31.5 142v1231h227v-1237q0 -197 -90 -296t-250 -99q-55 0 -108 8v217zM127 1321v246h235v-246h-235z" />
<glyph unicode="k" d="M125 0v1608h227v-838l264 377h256l-297 -406l322 -741h-254l-221 543l-70 -97v-446h-227z" />
<glyph unicode="l" horiz-adv-x="477" d="M125 0v1608h227v-1608h-227z" />
<glyph unicode="m" horiz-adv-x="1413" d="M125 0v1147h158l18 -139q35 78 99.5 118.5t140.5 40.5q164 0 233 -153q37 76 102.5 114.5t139.5 38.5q199 0 256 -209q23 -82 22 -245v-713h-227v709q0 98 -8 137q-23 104 -101 104q-100 0 -127 -149q-8 -47 -8 -125v-676h-227v709q0 98 -8 137q-23 104 -101 104 q-100 0 -127 -149q-8 -47 -8 -125v-676h-227z" />
<glyph unicode="n" horiz-adv-x="978" d="M125 0v1147h158l20 -154q37 82 105.5 128t150.5 46q233 0 287 -280q14 -74 14 -187v-700h-227v696q0 61 -6 107q-18 147 -121 147q-98 0 -137 -139q-16 -59 -17 -147v-664h-227z" />
<glyph unicode="o" d="M88 465v217q0 82 10 149q27 154 115 245t235.5 91t235.5 -91t115 -245q10 -68 10 -149v-217q0 -82 -10 -150q-27 -154 -115 -244.5t-235.5 -90.5t-235.5 91t-115 244q-10 68 -10 150zM315 469q0 -90 9 -137q23 -137 125 -137t124 137q8 47 9 137v209q0 90 -9 137 q-23 137 -125 137t-124 -137q-8 -47 -9 -137v-209z" />
<glyph unicode="p" horiz-adv-x="948" d="M125 -500v1647h158l18 -150q74 170 244 170q264 0 307 -327q8 -57 8 -148v-246q0 -104 -16 -186q-27 -127 -96.5 -203.5t-188.5 -76.5q-127 0 -207 86h-2q2 -51 2 -103v-463h-227zM352 453q0 -35 7.5 -75t21.5 -83t45 -70.5t72 -27.5q100 0 127 141q8 47 8 121v239 q0 59 -6 107q-20 147 -121 147q-98 0 -137 -139q-16 -59 -17 -145v-215z" />
<glyph unicode="q" horiz-adv-x="948" d="M88 446v246q0 90 8 148q23 143 96.5 235t210.5 92q82 0 146.5 -38.5t97.5 -110.5l19 129h157v-1647h-227v484l2 102h-2q-78 -106 -207 -106q-121 0 -191.5 75.5t-95.5 204.5q-14 73 -14 186zM315 451q0 -61 7 -107q20 -147 120 -147q98 0 138 139q16 59 16 147v213 q0 35 -7 75t-21.5 83t-45 70.5t-71.5 27.5q-100 0 -127 -141q-8 -47 -9 -121v-239z" />
<glyph unicode="r" horiz-adv-x="712" d="M125 0v1147h158l20 -166q76 186 256 186q70 0 131 -20l-4 -229q-76 33 -139 32q-156 0 -187 -239q-8 -72 -8 -176v-535h-227z" />
<glyph unicode="s" horiz-adv-x="804" d="M53 342h228q16 -168 129 -168q51 0 80.5 40t29.5 108q0 74 -39 114.5t-129 69.5q-141 45 -206.5 126t-65.5 214q0 147 86 234t231 87q301 0 332 -325h-227q-12 133 -105 133q-98 0 -98 -121q0 -66 31.5 -102.5t111.5 -65.5q301 -104 301 -362q0 -160 -88 -252t-241 -92 q-162 0 -256.5 92t-104.5 270z" />
<glyph unicode="t" horiz-adv-x="628" d="M25 936v211h137v287h225v-287h199v-211h-199v-494q0 -80 10 -131q14 -59 43 -81.5t88 -22.5q23 0 60 4v-211q-39 -6 -84 -6q-147 0 -225 62.5t-105 203.5q-12 68 -12 176v500h-137z" />
<glyph unicode="u" horiz-adv-x="978" d="M119 446v701h227v-696q0 -61 6 -107q18 -147 121 -147q98 0 137 139q16 59 17 147v664h227v-1147h-158l-20 154q-37 -82 -105.5 -128t-150.5 -46q-233 0 -287 280q-14 73 -14 186z" />
<glyph unicode="v" horiz-adv-x="819" d="M4 1147h238l166 -807h4l166 807h237l-285 -1147h-241z" />
<glyph unicode="w" horiz-adv-x="1193" d="M14 1147h228l118 -768h2l130 768h210l129 -768h3l118 768h228l-217 -1147h-236l-129 743h-2l-129 -743h-236z" />
<glyph unicode="x" horiz-adv-x="827" d="M6 0l295 600l-270 547h243l140 -332l137 332h246l-271 -547l295 -600h-241l-166 385l-164 -385h-244z" />
<glyph unicode="y" horiz-adv-x="835" d="M4 -207q63 -18 113 -18q109 0 155 166l37 133q-33 117 -95 336t-113.5 400t-94.5 337h238l178 -723h2l170 723h237l-323 -1180q-61 -223 -141 -316t-209 -93q-74 0 -154 26v209z" />
<glyph unicode="z" horiz-adv-x="827" d="M55 0v178l430 754h-411v215h678v-182l-428 -750h450v-215h-719z" />
<glyph unicode="{" horiz-adv-x="722" d="M41 592v184h61q166 0 134 285l-29 266q-23 207 67.5 318.5t288.5 111.5h139v-160h-112q-98 0 -136 -67.5t-22 -204.5l27 -233q39 -313 -185 -408q223 -94 185 -408l-27 -233q-16 -137 22 -204.5t136 -67.5h112v-160h-139q-199 0 -289 111.5t-67 318.5l29 266 q33 285 -134 285h-61z" />
<glyph unicode="|" horiz-adv-x="614" d="M201 -389v2148h213v-2148h-213z" />
<glyph unicode="}" horiz-adv-x="722" d="M20 -229h113q98 0 136 67.5t22 204.5l-27 233q-39 313 185 408q-223 94 -185 408l27 233q16 137 -22 204.5t-136 67.5h-113v160h140q199 0 289 -111.5t67 -318.5l-29 -266q-33 -285 134 -285h61v-184h-61q-166 0 -134 -285l29 -266q23 -207 -67.5 -318.5t-288.5 -111.5 h-140v160z" />
<glyph unicode="~" horiz-adv-x="899" d="M61 672q8 158 70 251t170 93q92 0 168 -82q55 -59 83 -81t54 -22q68 0 78 152h154q-8 -158 -69.5 -251t-170.5 -93q-92 0 -168 82q-55 59 -83 80.5t-54 21.5q-68 0 -78 -151h-154z" />
<glyph unicode="&#xa1;" horiz-adv-x="475" d="M111 872v275h254v-275h-254zM113 -389l24 1053h201l24 -1053h-249z" />
<glyph unicode="&#xa2;" horiz-adv-x="876" d="M92 547v217q0 82 10 149q23 137 96.5 225.5t194.5 106.5v191h123v-193q184 -27 258 -219q31 -86 37 -180h-217q-4 37 -8 57q-16 92 -70 121v-735q53 31 70 123l6 36h217q-8 -100 -37 -167q-76 -186 -256 -213v-209h-123v209q-121 18 -194.5 106t-96.5 225q-10 68 -10 150 zM311 547q0 -90 8 -137q16 -96 74 -125v739q-57 -29 -74 -123q-8 -47 -8 -137v-217z" />
<glyph unicode="&#xa3;" horiz-adv-x="958" d="M57 698v140h125v282q0 209 96.5 322.5t249.5 113.5q152 0 248 -106.5t98 -316.5h-219q-10 221 -125 221q-127 0 -127 -230v-286h283v-140h-283v-249q0 -182 -90 -242v-4h242q80 2 111.5 35.5t35.5 148.5h211q0 -225 -84 -306t-270 -81h-481v203q57 4 80.5 54t23.5 173 v268h-125z" />
<glyph unicode="&#xa5;" horiz-adv-x="983" d="M41 1536h242l209 -522l208 522h242l-301 -680h264v-145h-301v-193h301v-145h-301v-373h-225v373h-301v145h301v193h-301v145h264z" />
<glyph unicode="&#xa6;" horiz-adv-x="614" d="M201 -389v919h213v-919h-213zM201 840v919h213v-919h-213z" />
<glyph unicode="&#xa7;" horiz-adv-x="870" d="M78 657q0 174 176 279q-145 102 -145 278q0 152 89 237t226 85q143 0 233.5 -79t98.5 -245h-207q-8 68 -42 104t-81 36q-49 0 -83 -36t-34 -95q0 -127 156 -197l45 -20q139 -63 211 -142.5t72 -206.5q0 -164 -152 -282q127 -100 127 -264q0 -170 -91 -261.5t-237 -91.5 q-158 0 -254 88t-106 267h207q16 -172 143 -172q55 0 93 40.5t38 114.5q0 145 -158 207l-43 18q-282 121 -282 338zM272 684q0 -121 140 -182l88 -39q39 10 69.5 59t30.5 109q0 127 -137 184l-74 33q-43 -12 -80 -60.5t-37 -103.5z" />
<glyph unicode="&#xa8;" d="M164 1380v238h225v-238h-225zM508 1380v238h225v-238h-225z" />
<glyph unicode="&#xa9;" horiz-adv-x="1585" d="M98 768q0 342 182.5 565t512 223t512 -223t182.5 -565t-182.5 -565t-512 -223t-512 223t-182.5 565zM203 768q0 -301 151.5 -494.5t438 -193.5t438 193.5t151.5 494.5t-151.5 494.5t-438 193.5t-438 -193.5t-151.5 -494.5zM522 625v286q0 55 10 113q18 102 82 165.5 t170 63.5h25q106 0 169.5 -63.5t82.5 -165.5q10 -55 10 -111h-153q0 37 -7 84q-20 109 -102 109h-25q-82 0 -102 -109q-6 -47 -6 -88v-282q0 -41 6 -88q20 -109 102 -109h25q82 0 102 109q6 43 7 90h153q0 -61 -10 -117q-18 -104 -82 -166.5t-170 -62.5h-25 q-106 0 -169.5 62.5t-82.5 166.5q-10 58 -10 113z" />
<glyph unicode="&#xaa;" horiz-adv-x="559" d="M57 1073q0 84 45 140.5t129 70.5q33 4 70 4h47v27q0 31 -4 59q-16 61 -63 62q-55 0 -66 -76h-135q14 92 68.5 144t136.5 52q172 0 194 -196q6 -74 6 -94v-410h-96l-10 80q-49 -92 -143 -92q-78 0 -128.5 60t-50.5 169zM193 1075q0 -111 67 -110q63 0 82 98q8 49 8 90v23 h-53q-37 0 -51 -9q-53 -22 -53 -92z" />
<glyph unicode="&#xab;" horiz-adv-x="892" d="M41 635l399 561v-297l-188 -264l188 -264v-297zM416 635l399 561v-297l-188 -264l188 -264v-297z" />
<glyph unicode="&#xac;" horiz-adv-x="1015" d="M82 0v1536h852v-1536h-852zM180 188l273 578l-273 571v-1149zM242 1434l266 -557l266 557h-532zM246 102h524l-262 551zM563 766l273 -578v1149z" />
<glyph unicode="&#xad;" horiz-adv-x="735" d="M57 700v197h621v-197h-621z" />
<glyph unicode="&#xae;" horiz-adv-x="872" d="M74 1194q0 178 95 296t267 118t267.5 -118t95.5 -296t-95.5 -296t-267.5 -118t-267 118t-95 296zM135 1194q0 -156 77 -256t224.5 -100t224 100t76.5 256t-76.5 256t-224 100t-224.5 -100t-77 -256zM307 961v477h121q74 0 121 -35t47 -100q0 -98 -86 -132l102 -210h-90 l-90 196h-45v-196h-80zM385 1229h51q33 0 54.5 19.5t21.5 54.5q0 63 -84 63h-43v-137z" />
<glyph unicode="&#xaf;" d="M178 1382v148h541v-148h-541z" />
<glyph unicode="&#xb0;" horiz-adv-x="528" d="M57 1321q0 102 55.5 170t151.5 68t151.5 -68t55.5 -170t-55.5 -170t-151.5 -68t-151.5 68t-55.5 170zM166 1321q0 -59 26.5 -98t71.5 -39t71.5 39t26.5 98t-26.5 98t-71.5 39t-71.5 -39t-26.5 -98z" />
<glyph unicode="&#xb1;" horiz-adv-x="1050" d="M72 -6v196h907v-196h-907zM72 782v197h350v455h207v-455h350v-197h-350v-454h-207v454h-350z" />
<glyph unicode="&#xb2;" horiz-adv-x="1015" d="M82 0v1536h852v-1536h-852zM180 188l273 578l-273 571v-1149zM242 1434l266 -557l266 557h-532zM246 102h524l-262 551zM563 766l273 -578v1149z" />
<glyph unicode="&#xb3;" horiz-adv-x="1015" d="M82 0v1536h852v-1536h-852zM180 188l273 578l-273 571v-1149zM242 1434l266 -557l266 557h-532zM246 102h524l-262 551zM563 766l273 -578v1149z" />
<glyph unicode="&#xb4;" d="M272 1346l181 370h247v-12l-260 -358h-168z" />
<glyph unicode="&#xb5;" horiz-adv-x="985" d="M125 -500v1647h227v-696q0 -61 6 -107q18 -147 121 -147q98 0 137 139q16 59 17 147v664h227v-1147h-158l-14 125q-82 -145 -223 -145q-70 0 -121 47q4 -61 4 -123v-404h-223z" />
<glyph unicode="&#x3bc;" horiz-adv-x="985" d="M125 -500v1647h227v-696q0 -61 6 -107q18 -147 121 -147q98 0 137 139q16 59 17 147v664h227v-1147h-158l-14 125q-82 -145 -223 -145q-70 0 -121 47q4 -61 4 -123v-404h-223z" />
<glyph unicode="&#xb6;" horiz-adv-x="1048" d="M88 1130q0 172 103.5 289t269.5 117h444v-1894h-178v1755h-133v-1755h-180v1089q-137 2 -231.5 118.5t-94.5 280.5z" />
<glyph unicode="&#xb7;" horiz-adv-x="425" d="M80 666v288h266v-288h-266z" />
<glyph unicode="&#xb8;" d="M264 -299h119q10 -76 72 -76q29 0 44 22.5t15 55.5q0 76 -100 107l-41 12q-57 16 -37 72l55 161l113 -16l-37 -133q78 -23 129 -74t51 -129q0 -84 -55 -138t-131 -54q-86 0 -140.5 51t-56.5 139z" />
<glyph unicode="&#xb9;" horiz-adv-x="1015" d="M82 0v1536h852v-1536h-852zM180 188l273 578l-273 571v-1149zM242 1434l266 -557l266 557h-532zM246 102h524l-262 551zM563 766l273 -578v1149z" />
<glyph unicode="&#xba;" horiz-adv-x="557" d="M61 1135v131q0 53 7 90q10 90 65 145t145.5 55t145.5 -55t65 -145q6 -37 7 -90v-131q0 -53 -7 -91q-10 -90 -65 -145t-145.5 -55t-145.5 55t-65 145q-7 38 -7 91zM199 1137q0 -41 4 -82q12 -82 75.5 -82t75.5 82q4 41 4 82v127q0 41 -4 82q-12 82 -75.5 81.5t-75.5 -81.5 q-4 -41 -4 -82v-127z" />
<glyph unicode="&#xbb;" horiz-adv-x="892" d="M78 74v297l188 264l-188 264v297l399 -561zM453 74v297l188 264l-188 264v297l399 -561z" />
<glyph unicode="&#xbc;" horiz-adv-x="1015" d="M82 0v1536h852v-1536h-852zM180 188l273 578l-273 571v-1149zM242 1434l266 -557l266 557h-532zM246 102h524l-262 551zM563 766l273 -578v1149z" />
<glyph unicode="&#xbd;" horiz-adv-x="1015" d="M82 0v1536h852v-1536h-852zM180 188l273 578l-273 571v-1149zM242 1434l266 -557l266 557h-532zM246 102h524l-262 551zM563 766l273 -578v1149z" />
<glyph unicode="&#xbe;" horiz-adv-x="1015" d="M82 0v1536h852v-1536h-852zM180 188l273 578l-273 571v-1149zM242 1434l266 -557l266 557h-532zM246 102h524l-262 551zM563 766l273 -578v1149z" />
<glyph unicode="&#xbf;" horiz-adv-x="817" d="M53 -53q0 109 39 186.5t107 155.5q49 57 72.5 92t43 110.5t11.5 172.5h217q4 -57 4 -82q0 -94 -27.5 -174t-55.5 -119t-79 -99q-102 -117 -102 -235q0 -72 34.5 -113t92.5 -41q63 0 99 57.5t36 153.5v39h223v-39q0 -193 -100.5 -307.5t-255.5 -114.5q-162 0 -260.5 94.5 t-98.5 262.5zM303 872v275h254v-275h-254z" />
<glyph unicode="&#xc0;" horiz-adv-x="954" d="M4 0l324 1536h299l323 -1536h-239l-86 449h-295l-86 -449h-240zM182 2011v12h248l180 -370h-168zM373 674h209l-103 532h-4z" />
<glyph unicode="&#xc1;" horiz-adv-x="954" d="M4 0l324 1536h299l323 -1536h-239l-86 449h-295l-86 -449h-240zM340 1653l180 370h248v-12l-260 -358h-168zM373 674h209l-103 532h-4z" />
<glyph unicode="&#xc2;" horiz-adv-x="954" d="M4 0l324 1536h299l323 -1536h-239l-86 449h-295l-86 -449h-240zM145 1655l242 397h180l242 -397h-188l-144 221l-143 -221h-189zM373 674h209l-103 532h-4z" />
<glyph unicode="&#xc3;" horiz-adv-x="954" d="M4 0l324 1536h299l323 -1536h-239l-86 449h-295l-86 -449h-240zM139 1677q6 133 59.5 213t149.5 80q82 0 146 -69q49 -51 73.5 -70t46.5 -19q57 0 68 130h133q-6 -133 -59.5 -213t-149.5 -80q-82 0 -145 69q-49 51 -74 69.5t-47 18.5q-57 0 -68 -129h-133zM373 674h209 l-103 532h-4z" />
<glyph unicode="&#xc4;" horiz-adv-x="954" d="M4 0l324 1536h299l323 -1536h-239l-86 449h-295l-86 -449h-240zM193 1688v237h225v-237h-225zM373 674h209l-103 532h-4zM537 1688v237h225v-237h-225z" />
<glyph unicode="&#xc5;" horiz-adv-x="954" d="M4 0l324 1536h299l323 -1536h-239l-86 449h-295l-86 -449h-240zM262 1863.5q0 102.5 61.5 170t153.5 67.5t153.5 -67.5t61.5 -170t-61.5 -170t-153.5 -67.5t-153.5 67.5t-61.5 170zM373 674h209l-103 532h-4zM383 1863.5q0 -57.5 26.5 -94t67.5 -36.5t67.5 36.5t26.5 94 t-26.5 94.5t-67.5 37t-67.5 -37t-26.5 -94.5z" />
<glyph unicode="&#xc6;" horiz-adv-x="1425" d="M-37 0l504 1536h901v-227h-448v-408h362v-227h-362v-447h448v-227h-684v465h-326l-149 -465h-246zM432 692h252v619h-53z" />
<glyph unicode="&#xc7;" horiz-adv-x="985" d="M109 508v520q0 98 14 176q29 158 126 255t261 97h8q164 0 261.5 -97t125.5 -255q14 -74 15 -170h-236q0 51 -10 127q-29 168 -156 168h-8q-127 0 -156 -168q-10 -59 -10 -135v-516q0 -76 10 -135q29 -168 156 -168h8q127 0 156 168q10 76 10 137h236q0 -106 -15 -180 q-29 -158 -123 -254t-254 -98l-20 -74q78 -23 129 -74t51 -129q0 -84 -55 -138t-131 -54q-86 0 -140.5 51t-56.5 139h119q10 -76 72 -76q29 0 44 22.5t15 55.5q0 76 -100 107l-41 12q-57 16 -37 72l33 98q-119 27 -192 117t-95 223q-14 78 -14 176z" />
<glyph unicode="&#xc8;" horiz-adv-x="925" d="M131 0v1536h737v-227h-501v-408h415v-227h-415v-447h501v-227h-737zM209 2011v12h248l180 -370h-168z" />
<glyph unicode="&#xc9;" horiz-adv-x="925" d="M131 0v1536h737v-227h-501v-408h415v-227h-415v-447h501v-227h-737zM319 1653l181 370h248v-12l-261 -358h-168z" />
<glyph unicode="&#xca;" horiz-adv-x="925" d="M131 0v1536h737v-227h-501v-408h415v-227h-415v-447h501v-227h-737zM156 1655l241 397h181l241 -397h-188l-144 221l-143 -221h-188z" />
<glyph unicode="&#xcb;" horiz-adv-x="925" d="M131 0v1536h737v-227h-501v-408h415v-227h-415v-447h501v-227h-737zM203 1688v237h225v-237h-225zM547 1688v237h225v-237h-225z" />
<glyph unicode="&#xcc;" horiz-adv-x="497" d="M-61 2011v12h247l181 -370h-168zM131 0v1536h236v-1536h-236z" />
<glyph unicode="&#xcd;" horiz-adv-x="497" d="M131 0v1536h236v-1536h-236zM131 1653l180 370h248v-12l-260 -358h-168z" />
<glyph unicode="&#xce;" horiz-adv-x="497" d="M-84 1655l242 397h180l242 -397h-189l-143 221l-144 -221h-188zM131 0v1536h236v-1536h-236z" />
<glyph unicode="&#xcf;" horiz-adv-x="497" d="M-37 1688v237h225v-237h-225zM131 0v1536h236v-1536h-236zM307 1688v237h225v-237h-225z" />
<glyph unicode="&#xd0;" horiz-adv-x="1095" d="M29 723v170h159v643h336q78 0 135 -10q264 -51 314 -342q14 -78 14 -176v-480q0 -98 -14 -176q-49 -291 -314 -342q-57 -10 -135 -10h-336v723h-159zM424 229h104q66 0 101 13q94 35 112 155q10 59 11 135v472q0 76 -11 135q-18 121 -112 155q-35 12 -101 13h-104v-414 h186v-170h-186v-494z" />
<glyph unicode="&#xd1;" horiz-adv-x="1089" d="M131 0v1536h260l344 -1016h2q-2 68 -2 119v897h223v-1536h-260l-344 1018h-2q2 -68 2 -119v-899h-223zM207 1677q6 133 59 213t150 80q82 0 145 -69q49 -51 73.5 -70t47.5 -19q57 0 68 130h133q-6 -133 -59.5 -213t-149.5 -80q-82 0 -146 69q-49 51 -73.5 69.5 t-46.5 18.5q-57 0 -68 -129h-133z" />
<glyph unicode="&#xd2;" horiz-adv-x="1028" d="M109 508v520q0 98 14 176q29 158 126 255t261 97h8q164 0 261.5 -97t125.5 -255q14 -78 15 -176v-520q0 -98 -15 -176q-29 -158 -126 -255t-261 -97h-8q-164 0 -261 97t-126 255q-14 78 -14 176zM260 2011v12h248l180 -370h-168zM344 510q0 -76 10 -135q29 -168 156 -168 h8q127 0 156 168q10 59 10 135v516q0 76 -10 135q-29 168 -156 168h-8q-127 0 -156 -168q-10 -59 -10 -135v-516z" />
<glyph unicode="&#xd3;" horiz-adv-x="1028" d="M109 508v520q0 98 14 176q29 158 126 255t261 97h8q164 0 261.5 -97t125.5 -255q14 -78 15 -176v-520q0 -98 -15 -176q-29 -158 -126 -255t-261 -97h-8q-164 0 -261 97t-126 255q-14 78 -14 176zM322 1653l180 370h248v-12l-261 -358h-167zM344 510q0 -76 10 -135 q29 -168 156 -168h8q127 0 156 168q10 59 10 135v516q0 76 -10 135q-29 168 -156 168h-8q-127 0 -156 -168q-10 -59 -10 -135v-516z" />
<glyph unicode="&#xd4;" horiz-adv-x="1028" d="M109 508v520q0 98 14 176q29 158 126 255t261 97h8q164 0 261.5 -97t125.5 -255q14 -78 15 -176v-520q0 -98 -15 -176q-29 -158 -126 -255t-261 -97h-8q-164 0 -261 97t-126 255q-14 78 -14 176zM182 1634l242 398h180l242 -398h-189l-143 221l-143 -221h-189zM344 510 q0 -76 10 -135q29 -168 156 -168h8q127 0 156 168q10 59 10 135v516q0 76 -10 135q-29 168 -156 168h-8q-127 0 -156 -168q-10 -59 -10 -135v-516z" />
<glyph unicode="&#xd5;" horiz-adv-x="1028" d="M109 508v520q0 98 14 176q29 158 126 255t261 97h8q164 0 261.5 -97t125.5 -255q14 -78 15 -176v-520q0 -98 -15 -176q-29 -158 -126 -255t-261 -97h-8q-164 0 -261 97t-126 255q-14 78 -14 176zM176 1677q6 133 59.5 213t149.5 80q82 0 145 -69q49 -51 74 -70t47 -19 q57 0 68 130h133q-6 -133 -59.5 -213t-149.5 -80q-82 0 -145 69q-49 51 -74 69.5t-47 18.5q-57 0 -68 -129h-133zM344 510q0 -76 10 -135q29 -168 156 -168h8q127 0 156 168q10 59 10 135v516q0 76 -10 135q-29 168 -156 168h-8q-127 0 -156 -168q-10 -59 -10 -135v-516z " />
<glyph unicode="&#xd6;" horiz-adv-x="1028" d="M109 508v520q0 98 14 176q29 158 126 255t261 97h8q164 0 261.5 -97t125.5 -255q14 -78 15 -176v-520q0 -98 -15 -176q-29 -158 -126 -255t-261 -97h-8q-164 0 -261 97t-126 255q-14 78 -14 176zM229 1688v237h226v-237h-226zM344 510q0 -76 10 -135q29 -168 156 -168h8 q127 0 156 168q10 59 10 135v516q0 76 -10 135q-29 168 -156 168h-8q-127 0 -156 -168q-10 -59 -10 -135v-516zM573 1688v237h226v-237h-226z" />
<glyph unicode="&#xd7;" horiz-adv-x="913" d="M49 236l289 376l-289 379l148 127l260 -350l260 350l147 -127l-291 -379l291 -376l-149 -125l-258 348l-258 -348z" />
<glyph unicode="&#xd8;" horiz-adv-x="1028" d="M109 508v520q0 98 14 176q29 158 126 255t261 97h8q111 0 193 -47l37 99h155l-76 -205q53 -78 78 -199q14 -78 15 -176v-520q0 -98 -15 -176q-29 -158 -126 -255t-261 -97h-8q-109 0 -193 45l-36 -97h-156l76 203q-59 84 -78 201q-14 78 -14 176zM344 479l281 799 q-41 51 -107 51h-8q-127 0 -156 -168q-10 -59 -10 -135v-547zM403 256q43 -49 107 -49h8q127 0 156 168q10 59 10 135v543z" />
<glyph unicode="&#xd9;" horiz-adv-x="1056" d="M123 508v1028h235v-1026q0 -76 11 -135q29 -168 155 -168h8q127 0 156 168q10 59 10 135v1026h236v-1028q0 -98 -14 -176q-29 -158 -126.5 -255t-261.5 -97h-8q-164 0 -261 97t-126 255q-14 78 -14 176zM254 2011v12h248l180 -370h-168z" />
<glyph unicode="&#xda;" horiz-adv-x="1056" d="M123 508v1028h235v-1026q0 -76 11 -135q29 -168 155 -168h8q127 0 156 168q10 59 10 135v1026h236v-1028q0 -98 -14 -176q-29 -158 -126.5 -255t-261.5 -97h-8q-164 0 -261 97t-126 255q-14 78 -14 176zM377 1653l180 370h248v-12l-260 -358h-168z" />
<glyph unicode="&#xdb;" horiz-adv-x="1056" d="M123 508v1028h235v-1026q0 -76 11 -135q29 -168 155 -168h8q127 0 156 168q10 59 10 135v1026h236v-1028q0 -98 -14 -176q-29 -158 -126.5 -255t-261.5 -97h-8q-164 0 -261 97t-126 255q-14 78 -14 176zM197 1655l241 397h180l242 -397h-188l-144 221l-143 -221h-188z " />
<glyph unicode="&#xdc;" horiz-adv-x="1056" d="M123 508v1028h235v-1026q0 -76 11 -135q29 -168 155 -168h8q127 0 156 168q10 59 10 135v1026h236v-1028q0 -98 -14 -176q-29 -158 -126.5 -255t-261.5 -97h-8q-164 0 -261 97t-126 255q-14 78 -14 176zM244 1688v237h225v-237h-225zM588 1688v237h225v-237h-225z" />
<glyph unicode="&#xdd;" horiz-adv-x="931" d="M-10 1536h252l223 -590h2l223 590h252l-358 -866v-670h-236v670zM332 1653l180 370h248v-12l-260 -358h-168z" />
<glyph unicode="&#xde;" horiz-adv-x="1009" d="M131 0v1536h236v-287h108q88 0 154 -16q147 -39 227 -163t80 -298q0 -172 -83 -298t-243 -161q-53 -12 -133 -12h-110v-301h-236zM367 530h106q63 0 96 13q131 45 131 229q0 193 -129 238q-35 12 -98 12h-106v-492z" />
<glyph unicode="&#xdf;" horiz-adv-x="1001" d="M125 0v1102q0 86 12 145q31 145 130.5 227t242.5 82q164 0 268.5 -104t104.5 -295q0 -225 -176 -340q88 -37 152.5 -142.5t64.5 -246.5q0 -217 -100.5 -331.5t-260.5 -114.5q-84 0 -151 20v197q59 -16 112 -17q84 0 129 63.5t45 186.5q0 135 -66.5 206t-182.5 71h-21v186 h33q88 0 141 65.5t53 180.5q0 100 -40 151t-107 51q-111 0 -146 -118q-12 -41 -12 -113v-1112h-225z" />
<glyph unicode="&#xe0;" horiz-adv-x="907" d="M78 360q0 143 74.5 236.5t214.5 116.5q57 8 114 8h80v43q0 53 -8 98q-20 102 -104 103q-90 0 -111 -125h-223q23 152 112.5 239.5t229 87.5t222.5 -84t101 -243q8 -82 8 -156v-684h-157l-19 133q-84 -154 -239 -153q-127 0 -211 100t-84 280zM193 1642v13h247l181 -371 h-168zM303 365q0 -184 113 -185q100 0 135 166q12 61 12 148v38h-88q-57 0 -86 -12q-86 -38 -86 -155z" />
<glyph unicode="&#xe1;" horiz-adv-x="907" d="M78 360q0 143 74.5 236.5t214.5 116.5q57 8 114 8h80v43q0 53 -8 98q-20 102 -104 103q-90 0 -111 -125h-223q23 152 112.5 239.5t229 87.5t222.5 -84t101 -243q8 -82 8 -156v-684h-157l-19 133q-84 -154 -239 -153q-127 0 -211 100t-84 280zM270 1284l181 371h247v-13 l-260 -358h-168zM303 365q0 -184 113 -185q100 0 135 166q12 61 12 148v38h-88q-57 0 -86 -12q-86 -38 -86 -155z" />
<glyph unicode="&#xe2;" horiz-adv-x="907" d="M78 360q0 143 74.5 236.5t214.5 116.5q57 8 114 8h80v43q0 53 -8 98q-20 102 -104 103q-90 0 -111 -125h-223q23 152 112.5 239.5t229 87.5t222.5 -84t101 -243q8 -82 8 -156v-684h-157l-19 133q-84 -154 -239 -153q-127 0 -211 100t-84 280zM121 1266l241 397h181 l241 -397h-188l-143 221l-144 -221h-188zM303 365q0 -184 113 -185q100 0 135 166q12 61 12 148v38h-88q-57 0 -86 -12q-86 -38 -86 -155z" />
<glyph unicode="&#xe3;" horiz-adv-x="907" d="M78 360q0 143 74.5 236.5t214.5 116.5q57 8 114 8h80v43q0 53 -8 98q-20 102 -104 103q-90 0 -111 -125h-223q23 152 112.5 239.5t229 87.5t222.5 -84t101 -243q8 -82 8 -156v-684h-157l-19 133q-84 -154 -239 -153q-127 0 -211 100t-84 280zM119 1309q6 133 59 213 t150 80q82 0 145 -70q49 -51 73.5 -69.5t47.5 -18.5q57 0 68 129h133q-6 -133 -59.5 -213t-149.5 -80q-82 0 -146 70q-49 51 -73.5 69.5t-47.5 18.5q-57 0 -67 -129h-133zM303 365q0 -184 113 -185q100 0 135 166q12 61 12 148v38h-88q-57 0 -86 -12q-86 -38 -86 -155z" />
<glyph unicode="&#xe4;" horiz-adv-x="907" d="M78 360q0 143 74.5 236.5t214.5 116.5q57 8 114 8h80v43q0 53 -8 98q-20 102 -104 103q-90 0 -111 -125h-223q23 152 112.5 239.5t229 87.5t222.5 -84t101 -243q8 -82 8 -156v-684h-157l-19 133q-84 -154 -239 -153q-127 0 -211 100t-84 280zM168 1319v237h225v-237h-225 zM303 365q0 -184 113 -185q100 0 135 166q12 61 12 148v38h-88q-57 0 -86 -12q-86 -38 -86 -155zM512 1319v237h225v-237h-225z" />
<glyph unicode="&#xe5;" horiz-adv-x="907" d="M78 360q0 143 74.5 236.5t214.5 116.5q57 8 114 8h80v43q0 53 -8 98q-20 102 -104 103q-90 0 -111 -125h-223q23 152 112.5 239.5t229 87.5t222.5 -84t101 -243q8 -82 8 -156v-684h-157l-19 133q-84 -154 -239 -153q-127 0 -211 100t-84 280zM240 1495q0 102 61 170 t153.5 68t154 -68t61.5 -170t-61.5 -170t-154 -68t-153.5 68t-61 170zM303 365q0 -184 113 -185q100 0 135 166q12 61 12 148v38h-88q-57 0 -86 -12q-86 -38 -86 -155zM360 1495q0 -57 27 -94t68 -37t67.5 37t26.5 94t-26.5 94t-67.5 37t-68 -37t-27 -94z" />
<glyph unicode="&#xe6;" horiz-adv-x="1370" d="M78 360q0 141 73.5 232.5t215.5 114.5q57 8 114 8h80v49q0 53 -8 98q-20 102 -104 103q-90 0 -111 -125h-223q23 152 112.5 239.5t229.5 87.5q158 0 227 -116q80 117 240 116q147 0 235 -91t113 -245q12 -72 12 -204v-101h-493v-63q0 -90 8 -137q23 -137 125 -138 q57 0 88.5 45.5t38.5 108.5h225q-23 -172 -112 -267t-240 -95q-190 0 -275 159q-43 -78 -118.5 -118.5t-157.5 -40.5q-127 0 -211 100t-84 280zM303 365q0 -184 113 -185q100 0 135 166q12 61 12 148v32h-88q-57 0 -86 -12q-86 -38 -86 -149zM791 715h266q0 57 -8 104 q-23 139 -125.5 139t-124.5 -139q-8 -61 -8 -104z" />
<glyph unicode="&#xe7;" horiz-adv-x="870" d="M88 465v217q0 82 10 149q27 154 115 245t236 91q236 0 321 -229q31 -86 37 -180h-225q-4 37 -9 57q-23 137 -125 137t-124 -137q-8 -47 -9 -137v-209q0 -90 9 -137q23 -137 125 -137t124 137l7 37h225q-8 -100 -37 -168q-84 -213 -301 -221l-21 -74q78 -23 129.5 -74 t51.5 -129q0 -84 -55.5 -138t-131.5 -54q-86 0 -140 51t-56 139h118q10 -76 72 -76q29 0 44.5 22.5t15.5 55.5q0 76 -101 107l-41 12q-57 16 -37 72l33 98q-205 53 -250 323q-10 68 -10 150z" />
<glyph unicode="&#xe8;" horiz-adv-x="894" d="M88 465v217q0 82 10 149q27 154 115 245t235.5 91t235.5 -91t113 -245q12 -72 12 -210v-103h-494v-55q0 -90 9 -137q23 -137 125 -138q57 0 88.5 45.5t37.5 108.5h226q-23 -172 -112 -267t-240 -95q-147 0 -235.5 91t-115.5 244q-10 68 -10 150zM193 1642v13h247 l181 -371h-168zM315 711h267q0 61 -9 108q-23 139 -125 139t-124 -139q-9 -61 -9 -108z" />
<glyph unicode="&#xe9;" horiz-adv-x="894" d="M88 465v217q0 82 10 149q27 154 115 245t235.5 91t235.5 -91t113 -245q12 -72 12 -210v-103h-494v-55q0 -90 9 -137q23 -137 125 -138q57 0 88.5 45.5t37.5 108.5h226q-23 -172 -112 -267t-240 -95q-147 0 -235.5 91t-115.5 244q-10 68 -10 150zM274 1284l181 371h247 v-13l-260 -358h-168zM315 711h267q0 61 -9 108q-23 139 -125 139t-124 -139q-9 -61 -9 -108z" />
<glyph unicode="&#xea;" horiz-adv-x="894" d="M88 465v217q0 82 10 149q27 154 115 245t235.5 91t235.5 -91t113 -245q12 -72 12 -210v-103h-494v-55q0 -90 9 -137q23 -137 125 -138q57 0 88.5 45.5t37.5 108.5h226q-23 -172 -112 -267t-240 -95q-147 0 -235.5 91t-115.5 244q-10 68 -10 150zM115 1266l241 397h181 l241 -397h-188l-144 221l-143 -221h-188zM315 711h267q0 61 -9 108q-23 139 -125 139t-124 -139q-9 -61 -9 -108z" />
<glyph unicode="&#xeb;" horiz-adv-x="894" d="M88 465v217q0 82 10 149q27 154 115 245t235.5 91t235.5 -91t113 -245q12 -72 12 -210v-103h-494v-55q0 -90 9 -137q23 -137 125 -138q57 0 88.5 45.5t37.5 108.5h226q-23 -172 -112 -267t-240 -95q-147 0 -235.5 91t-115.5 244q-10 68 -10 150zM162 1319v237h225v-237 h-225zM315 711h267q0 61 -9 108q-23 139 -125 139t-124 -139q-9 -61 -9 -108zM506 1319v237h225v-237h-225z" />
<glyph unicode="&#xec;" horiz-adv-x="477" d="M-76 1642v13h248l180 -371h-168zM125 0v1147h227v-1147h-227z" />
<glyph unicode="&#xed;" horiz-adv-x="477" d="M125 0v1147h227v-1147h-227zM125 1284l180 371h248v-13l-260 -358h-168z" />
<glyph unicode="&#xee;" horiz-adv-x="477" d="M-74 1348l221 397h181l221 -397h-189l-122 221l-123 -221h-189zM125 0v1147h227v-1147h-227z" />
<glyph unicode="&#xef;" horiz-adv-x="477" d="M-47 1319v237h225v-237h-225zM125 0v1147h227v-1147h-227zM297 1319v237h225v-237h-225z" />
<glyph unicode="&#xf0;" d="M88 465v110q0 125 23 222q31 127 111.5 195.5t174.5 68.5q70 0 129 -33q-27 100 -75 203l-185 -94l-63 137l182 90l-2 6q-41 80 -92 152l176 106q51 -74 104 -168l164 84l66 -137l-160 -80q72 -152 113 -313q55 -209 55 -410v-139q0 -82 -10 -150q-27 -154 -115 -244.5 t-235.5 -90.5t-235.5 91t-115 244q-10 68 -10 150zM315 469q0 -90 9 -137q23 -137 125 -137t124 137q8 47 9 137v102q0 90 -9 138q-23 137 -125 137t-124 -137q-8 -47 -9 -138v-102z" />
<glyph unicode="&#xf1;" horiz-adv-x="978" d="M125 0v1147h158l20 -154q37 82 105.5 128t150.5 46q233 0 287 -280q14 -74 14 -187v-700h-227v696q0 61 -6 107q-18 147 -121 147q-98 0 -137 -139q-16 -59 -17 -147v-664h-227zM152 1311q6 133 59 213t149 80q82 0 146 -70q49 -51 73.5 -69.5t47.5 -18.5q57 0 67 129 h133q-6 -133 -59 -213t-150 -80q-82 0 -145 70q-49 51 -73.5 69.5t-47.5 18.5q-57 0 -67 -129h-133z" />
<glyph unicode="&#xf2;" d="M88 465v217q0 82 10 149q27 154 115 245t235.5 91t235.5 -91t115 -245q10 -68 10 -149v-217q0 -82 -10 -150q-27 -154 -115 -244.5t-235.5 -90.5t-235.5 91t-115 244q-10 68 -10 150zM215 1642v13h248l180 -371h-168zM315 469q0 -90 9 -137q23 -137 125 -137t124 137 q8 47 9 137v209q0 90 -9 137q-23 137 -125 137t-124 -137q-8 -47 -9 -137v-209z" />
<glyph unicode="&#xf3;" d="M88 465v217q0 82 10 149q27 154 115 245t235.5 91t235.5 -91t115 -245q10 -68 10 -149v-217q0 -82 -10 -150q-27 -154 -115 -244.5t-235.5 -90.5t-235.5 91t-115 244q-10 68 -10 150zM256 1284l180 371h248v-13l-260 -358h-168zM315 469q0 -90 9 -137q23 -137 125 -137 t124 137q8 47 9 137v209q0 90 -9 137q-23 137 -125 137t-124 -137q-8 -47 -9 -137v-209z" />
<glyph unicode="&#xf4;" d="M88 465v217q0 82 10 149q27 154 115 245t235.5 91t235.5 -91t115 -245q10 -68 10 -149v-217q0 -82 -10 -150q-27 -154 -115 -244.5t-235.5 -90.5t-235.5 91t-115 244q-10 68 -10 150zM117 1266l241 397h181l241 -397h-188l-143 221l-144 -221h-188zM315 469q0 -90 9 -137 q23 -137 125 -137t124 137q8 47 9 137v209q0 90 -9 137q-23 137 -125 137t-124 -137q-8 -47 -9 -137v-209z" />
<glyph unicode="&#xf5;" d="M88 465v217q0 82 10 149q27 154 115 245t235.5 91t235.5 -91t115 -245q10 -68 10 -149v-217q0 -82 -10 -150q-27 -154 -115 -244.5t-235.5 -90.5t-235.5 91t-115 244q-10 68 -10 150zM111 1309q6 133 59 213t149 80q82 0 146 -70q49 -51 73.5 -69.5t47.5 -18.5 q57 0 67 129h133q-6 -133 -59 -213t-149 -80q-82 0 -146 70q-49 51 -73.5 69.5t-47.5 18.5q-57 0 -67 -129h-133zM315 469q0 -90 9 -137q23 -137 125 -137t124 137q8 47 9 137v209q0 90 -9 137q-23 137 -125 137t-124 -137q-8 -47 -9 -137v-209z" />
<glyph unicode="&#xf6;" d="M88 465v217q0 82 10 149q27 154 115 245t235.5 91t235.5 -91t115 -245q10 -68 10 -149v-217q0 -82 -10 -150q-27 -154 -115 -244.5t-235.5 -90.5t-235.5 91t-115 244q-10 68 -10 150zM164 1319v237h225v-237h-225zM315 469q0 -90 9 -137q23 -137 125 -137t124 137 q8 47 9 137v209q0 90 -9 137q-23 137 -125 137t-124 -137q-8 -47 -9 -137v-209zM508 1319v237h225v-237h-225z" />
<glyph unicode="&#xf7;" horiz-adv-x="966" d="M31 516v197h905v-197h-905zM358 76v260h240v-260h-240zM358 893v258h240v-258h-240z" />
<glyph unicode="&#xf8;" d="M88 465v217q0 82 10 149q27 154 115 245t236 91q76 0 133 -24l26 76h144l-56 -156q76 -82 103 -232q10 -68 10 -149v-217q0 -82 -10 -150q-27 -154 -115 -244.5t-235 -90.5q-72 0 -134 22l-26 -74h-144l56 154q-80 90 -103 233q-10 68 -10 150zM315 387l191 549 q-27 16 -57 16q-102 0 -125 -137q-8 -47 -9 -137v-291zM389 209q23 -14 60 -14q102 0 124 137q8 47 9 137v289z" />
<glyph unicode="&#xf9;" horiz-adv-x="978" d="M119 446v701h227v-696q0 -61 6 -107q18 -147 121 -147q98 0 137 139q16 59 17 147v664h227v-1147h-158l-20 154q-37 -82 -105.5 -128t-150.5 -46q-233 0 -287 280q-14 73 -14 186zM236 1642v13h247l181 -371h-168z" />
<glyph unicode="&#xfa;" horiz-adv-x="978" d="M119 446v701h227v-696q0 -61 6 -107q18 -147 121 -147q98 0 137 139q16 59 17 147v664h227v-1147h-158l-20 154q-37 -82 -105.5 -128t-150.5 -46q-233 0 -287 280q-14 73 -14 186zM317 1284l181 371h247v-13l-260 -358h-168z" />
<glyph unicode="&#xfb;" horiz-adv-x="978" d="M119 446v701h227v-696q0 -61 6 -107q18 -147 121 -147q98 0 137 139q16 59 17 147v664h227v-1147h-158l-20 154q-37 -82 -105.5 -128t-150.5 -46q-233 0 -287 280q-14 73 -14 186zM158 1286l241 397h181l241 -397h-188l-144 221l-143 -221h-188z" />
<glyph unicode="&#xfc;" horiz-adv-x="978" d="M119 446v701h227v-696q0 -61 6 -107q18 -147 121 -147q98 0 137 139q16 59 17 147v664h227v-1147h-158l-20 154q-37 -82 -105.5 -128t-150.5 -46q-233 0 -287 280q-14 73 -14 186zM205 1319v237h225v-237h-225zM549 1319v237h225v-237h-225z" />
<glyph unicode="&#xfd;" horiz-adv-x="835" d="M4 -207q63 -18 113 -18q109 0 155 166l37 133q-33 117 -95 336t-113.5 400t-94.5 337h238l178 -723h2l170 723h237l-323 -1180q-61 -223 -141 -316t-209 -93q-74 0 -154 26v209zM266 1284l180 371h248v-13l-260 -358h-168z" />
<glyph unicode="&#xfe;" horiz-adv-x="954" d="M131 -500v2108h227v-445l-2 -102h2q78 106 199 106q137 0 210 -92t91 -235q8 -57 8 -148v-246q0 -104 -16 -186q-27 -127 -96.5 -203.5t-188.5 -76.5q-127 0 -207 86h-2q2 -51 2 -103v-463h-227zM358 453q0 -35 7.5 -75t21.5 -83t45 -70.5t72 -27.5q100 0 127 141 q8 47 8 121v239q0 59 -6 107q-20 147 -121 147q-98 0 -137 -139q-16 -59 -17 -145v-215z" />
<glyph unicode="&#xff;" horiz-adv-x="835" d="M4 -207q63 -18 113 -18q109 0 155 166l37 133q-33 117 -95 336t-113.5 400t-94.5 337h238l178 -723h2l170 723h237l-323 -1180q-61 -223 -141 -316t-209 -93q-74 0 -154 26v209zM133 1319v237h225v-237h-225zM477 1319v237h225v-237h-225z" />
<glyph unicode="&#x152;" horiz-adv-x="1406" d="M109 528v480q0 98 14 176q29 158 126 255t261 97h840v-227h-451v-408h367v-227h-367v-447h451v-227h-840q-164 0 -261 97.5t-126 254.5q-14 78 -14 176zM344 530q0 -76 10 -135q29 -168 156 -168h154v1082h-154q-127 0 -156 -168q-10 -59 -10 -135v-476z" />
<glyph unicode="&#x153;" horiz-adv-x="1388" d="M88 465v217q0 82 10 149q27 154 115 245t236 91q168 0 245 -127q80 127 248 127q147 0 235.5 -91t112.5 -245q12 -72 13 -210v-103h-494v-55q0 -90 8 -137q23 -137 125 -138q57 0 89 45.5t38 108.5h225q-23 -172 -111.5 -267t-240.5 -95q-166 0 -248 124 q-78 -125 -245 -124q-147 0 -235.5 91t-115.5 244q-10 68 -10 150zM315 469q0 -90 9 -137q23 -137 125 -137t124 137q8 47 9 137v209q0 90 -9 137q-23 137 -125 137t-124 -137q-8 -47 -9 -137v-209zM809 711h266q0 61 -8 108q-23 139 -125 139t-125 -139q-8 -61 -8 -108z " />
<glyph unicode="&#x178;" horiz-adv-x="931" d="M-10 1536h252l223 -590h2l223 590h252l-358 -866v-670h-236v670zM180 1688v237h226v-237h-226zM524 1688v237h226v-237h-226z" />
<glyph unicode="&#x2c6;" d="M117 1348l241 397h181l241 -397h-188l-143 221l-144 -221h-188z" />
<glyph unicode="&#x2dc;" d="M111 1370q6 133 59 213t149 80q82 0 146 -70q49 -51 73.5 -69.5t47.5 -18.5q57 0 67 129h133q-6 -133 -59 -213t-149 -80q-82 0 -146 70q-49 51 -73.5 69.5t-47.5 18.5q-57 0 -67 -129h-133z" />
<glyph unicode="&#x2000;" horiz-adv-x="1050" />
<glyph unicode="&#x2001;" horiz-adv-x="2101" />
<glyph unicode="&#x2002;" horiz-adv-x="1050" />
<glyph unicode="&#x2003;" horiz-adv-x="2101" />
<glyph unicode="&#x2004;" horiz-adv-x="700" />
<glyph unicode="&#x2005;" horiz-adv-x="524" />
<glyph unicode="&#x2006;" horiz-adv-x="350" />
<glyph unicode="&#x2007;" horiz-adv-x="350" />
<glyph unicode="&#x2008;" horiz-adv-x="262" />
<glyph unicode="&#x2009;" horiz-adv-x="419" />
<glyph unicode="&#x200a;" horiz-adv-x="116" />
<glyph unicode="&#x2010;" horiz-adv-x="735" d="M57 700v197h621v-197h-621z" />
<glyph unicode="&#x2011;" horiz-adv-x="735" d="M57 700v197h621v-197h-621z" />
<glyph unicode="&#x2012;" horiz-adv-x="735" d="M57 700v197h621v-197h-621z" />
<glyph unicode="&#x2013;" horiz-adv-x="944" d="M68 700v197h809v-197h-809z" />
<glyph unicode="&#x2014;" horiz-adv-x="1128" d="M68 700v197h993v-197h-993z" />
<glyph unicode="&#x2018;" horiz-adv-x="428" d="M74 991v244q0 92 24.5 169t93 138.5t175.5 75.5v-107q-152 -47 -152 -206q0 -25 23 -25h112v-289h-276z" />
<glyph unicode="&#x2019;" horiz-adv-x="417" d="M68 991v107q152 47 151 207q0 25 -22 24h-113v289h276v-244q0 -92 -24.5 -169t-93 -138.5t-174.5 -75.5z" />
<glyph unicode="&#x201a;" horiz-adv-x="417" d="M57 -231q152 47 152 206q0 25 -23 25h-112v289h276v-244q0 -92 -24.5 -169t-93 -138.5t-175.5 -75.5v107z" />
<glyph unicode="&#x201c;" horiz-adv-x="817" d="M74 991v244q0 92 24.5 169t93 138.5t175.5 75.5v-107q-152 -47 -152 -206q0 -25 23 -25h112v-289h-276zM463 991v244q0 92 24.5 169t93 138.5t175.5 75.5v-107q-152 -47 -152 -206q0 -25 23 -25h112v-289h-276z" />
<glyph unicode="&#x201d;" horiz-adv-x="806" d="M68 991v107q152 47 151 207q0 25 -22 24h-113v289h276v-244q0 -92 -24.5 -169t-93 -138.5t-174.5 -75.5zM457 991v107q152 47 151 207q0 25 -22 24h-113v289h277v-244q0 -92 -25 -169t-93.5 -138.5t-174.5 -75.5z" />
<glyph unicode="&#x201e;" horiz-adv-x="806" d="M57 -231q152 47 152 206q0 25 -23 25h-112v289h276v-244q0 -92 -24.5 -169t-93 -138.5t-175.5 -75.5v107zM446 -231q152 47 152 206q0 25 -23 25h-112v289h276v-244q0 -92 -24.5 -169t-93 -138.5t-175.5 -75.5v107z" />
<glyph unicode="&#x2022;" horiz-adv-x="559" d="M98 635v424h363v-424h-363z" />
<glyph unicode="&#x2026;" horiz-adv-x="1269" d="M76 0v289h266v-289h-266zM502 0v289h266v-289h-266zM928 0v289h266v-289h-266z" />
<glyph unicode="&#x202f;" horiz-adv-x="419" />
<glyph unicode="&#x2039;" horiz-adv-x="518" d="M41 635l399 561v-297l-188 -264l188 -264v-297z" />
<glyph unicode="&#x203a;" horiz-adv-x="518" d="M78 74v297l188 264l-188 264v297l399 -561z" />
<glyph unicode="&#x205f;" horiz-adv-x="524" />
<glyph unicode="&#x20ac;" horiz-adv-x="1052" d="M45 520l37 146h143v178h-180l37 145h145v133q0 205 111 319.5t270 114.5q158 0 266.5 -109.5t112.5 -330.5h-225q-12 231 -156 232q-158 0 -157 -232v-127h346l-41 -145h-308v-178h269l-37 -146h-229v-100q0 -231 157 -232q143 0 156 232h225q-4 -221 -112.5 -330.5 t-266.5 -109.5q-160 0 -270.5 114.5t-110.5 319.5v106h-182z" />
<glyph unicode="&#x2122;" horiz-adv-x="999" d="M37 1434v102h352v-102h-119v-512h-112v512h-121zM442 922v614h136l106 -315l109 315h135v-614h-109v403l-90 -252h-88l-90 254v-405h-109z" />
<glyph unicode="&#xe000;" horiz-adv-x="1145" d="M0 1145h1145v-1145h-1145v1145z" />
<glyph unicode="&#xfb01;" horiz-adv-x="980" d="M25 944v203h135v88q0 197 90 296t250 99q72 0 149 -12v-217q-86 12 -127 12q-72 0 -103.5 -42t-31.5 -142v-82h469v-1147h-227v944h-244q2 -68 2 -119v-825h-227v944h-135z" />
<glyph unicode="&#xfb02;" horiz-adv-x="1024" d="M25 936v211h135v88q0 395 381 395q143 0 358 -22v-1608h-227v1409q-80 6 -129 6q-86 0 -121 -41t-35 -143v-84h195v-211h-197q2 -68 2 -119v-817h-227v936h-135z" />
<glyph unicode="&#xfb03;" horiz-adv-x="1685" d="M1329 1321v246h235v-246h-235zM1333 0v1147h227v-1147h-227zM629 936v211h135v88q0 197 90 296t250 99q55 0 108 -8v-217q-57 8 -86 8q-72 0 -103.5 -42t-31.5 -142v-82h199v-211h-201q2 -68 2 -119v-817h-227v936h-135zM25 936v211h135v88q0 197 90 296t250 99 q55 0 108 -8v-217q-57 8 -86 8q-72 0 -103.5 -42t-31.5 -142v-82h199v-211h-201q2 -68 2 -119v-817h-227v936h-135z" />
<glyph unicode="&#xfb04;" horiz-adv-x="1685" d="M1333 0v1608h227v-1608h-227zM629 936v211h135v88q0 197 90 296t250 99q55 0 108 -8v-217q-57 8 -86 8q-72 0 -103.5 -42t-31.5 -142v-82h199v-211h-201q2 -68 2 -119v-817h-227v936h-135zM25 936v211h135v88q0 197 90 296t250 99q55 0 108 -8v-217q-57 8 -86 8 q-72 0 -103.5 -42t-31.5 -142v-82h199v-211h-201q2 -68 2 -119v-817h-227v936h-135z" />
</font>
</defs>
</svg>
